<svg width="458" height="292" viewBox="0 0 458 292" fill="none" xmlns="http://www.w3.org/2000/svg">
<path d="M163.539 137C159.388 137.23 155.302 138.931 152.129 142.102C145.29 148.942 145.29 160.031 152.129 166.87C155.549 170.29 160.031 172 164.514 172C168.996 172 173.479 170.29 176.898 166.87C180.069 163.699 181.77 159.613 182 155.461L163.539 137ZM159.601 160.338H156.133L159.809 154.209L161.497 157.021L159.601 160.338ZM161.281 160.338L167.106 150.144L172.932 160.338H161.281ZM178.268 153.792C177.147 153.599 176.049 153.284 174.984 152.853C172.994 152.045 171.207 150.859 169.674 149.327C168.029 147.682 166.788 145.754 165.983 143.595C165.634 142.659 165.376 141.703 165.207 140.731L178.268 153.792ZM179.217 160.947C178.415 162.77 177.287 164.416 175.866 165.839C174.333 167.371 172.546 168.558 170.556 169.365C168.632 170.145 166.6 170.54 164.514 170.54C162.428 170.54 160.395 170.145 158.472 169.365C156.481 168.558 154.695 167.371 153.162 165.839C151.629 164.305 150.442 162.519 149.635 160.528C148.855 158.605 148.459 156.572 148.459 154.487C148.459 152.401 148.854 150.368 149.635 148.444C150.442 146.454 151.629 144.667 153.162 143.134C154.584 141.712 156.23 140.585 158.053 139.785C159.621 139.096 161.274 138.667 162.981 138.505L163.547 139.072C163.743 142.209 164.779 145.305 166.656 147.991L162.325 155.568L159.809 151.373L153.554 161.797H158.767H166.064H175.446L169.23 150.919C172.278 153.701 176.07 155.211 179.928 155.452L180.495 156.019C180.334 157.725 179.904 159.38 179.217 160.947Z" fill="url(#paint0_linear)" style="mix-blend-mode:multiply"/>
<path d="M319.875 37L311.327 47.0085L310.548 47.9205L302 57.929L320.311 73.569L328.86 63.5606L329.639 62.6485L338.187 52.6401L319.875 37ZM320.183 71.9496L303.619 57.8016L311.421 48.6662L327.986 62.8143L320.183 71.9496ZM312.2 47.7542L320.003 38.6188L336.568 52.7669L328.765 61.9022L312.2 47.7541L312.2 47.7542Z" fill="#08F1D5"/>
<path d="M322.022 47.0338L322.401 44.7605L316.968 46.5836L318.837 48.1798L321.454 50.4149L324.815 53.2859L326.296 45.4993L322.022 47.0338ZM319.255 47.0269L320.955 46.4534L320.783 47.4815L320.08 47.7316L319.255 47.0269ZM321.085 48.5898L324.794 47.2577L324.059 51.1297L321.085 48.5898Z" fill="#08F1D5"/>
<path d="M323.638 53.7857L316.661 47.8264C316.422 47.6223 316.057 47.651 315.851 47.8925C315.647 48.1307 315.676 48.4955 315.915 48.6995L322.892 54.6588C323.134 54.865 323.494 54.833 323.698 54.5948C323.904 54.3534 323.879 53.9919 323.638 53.7857Z" fill="#08F1D5"/>
<path d="M308.094 57.8557C307.855 57.6516 307.493 57.6775 307.287 57.9189C307.081 58.1603 307.112 58.5219 307.351 58.7259C307.592 58.9321 307.954 58.9066 308.161 58.6652C308.367 58.4237 308.336 58.0619 308.094 57.8557Z" fill="#08F1D5"/>
<path d="M309.838 59.3444C309.6 59.1409 309.237 59.1667 309.031 59.4082C308.825 59.6496 308.856 60.0111 309.095 60.2146C309.336 60.4208 309.698 60.3954 309.904 60.1539C310.11 59.9124 310.079 59.5506 309.838 59.3444Z" fill="#08F1D5"/>
<path d="M311.585 60.8361C311.344 60.63 310.981 60.6558 310.775 60.8972C310.569 61.1386 310.6 61.5001 310.842 61.7064C311.08 61.9099 311.442 61.8844 311.648 61.6429C311.855 61.4015 311.823 61.0396 311.585 60.8361Z" fill="#08F1D5"/>
<path d="M313.327 62.3252C313.086 62.119 312.724 62.1448 312.517 62.3862C312.311 62.6276 312.343 62.9892 312.584 63.1954C312.822 63.3983 313.184 63.3728 313.39 63.1314C313.596 62.8899 313.565 62.5281 313.327 62.3252Z" fill="#08F1D5"/>
<path d="M315.072 63.8147C314.83 63.6085 314.471 63.6365 314.264 63.8779C314.058 64.1193 314.087 64.4787 314.329 64.6849C314.57 64.8911 314.928 64.8623 315.134 64.6209C315.341 64.3794 315.313 64.0209 315.072 63.8147Z" fill="#08F1D5"/>
<path d="M312.89 60.4413L316.251 63.3123L317.73 55.5286L313.455 57.0634L313.837 54.7869L308.404 56.6101L310.273 58.2063L312.89 60.4413L312.89 60.4413ZM315.492 61.1591L312.518 58.6191L316.227 57.2874L315.492 61.1591ZM310.689 57.0562L312.389 56.483L312.219 57.508L311.514 57.761L310.689 57.0562L310.689 57.0562Z" fill="#08F1D5"/>
<path d="M332.574 55.4235C332.549 55.1085 332.272 54.8718 331.957 54.8965L329.098 55.1245L329.008 53.9805C328.983 53.6655 328.706 53.4287 328.391 53.4535C328.076 53.4783 327.842 53.7523 327.864 54.0705L327.998 55.7833C328.025 56.1004 328.3 56.335 328.615 56.3102L332.047 56.0405C332.362 56.0157 332.599 55.7385 332.574 55.4235Z" fill="#08F1D5"/>
<path d="M319.495 65.7379C319.523 66.055 319.795 66.2925 320.112 66.2648L320.115 66.267L321.256 66.1748L321.346 67.3188C321.371 67.6338 321.648 67.8705 321.963 67.8457C322.278 67.821 322.513 67.5466 322.49 67.2288L322.398 66.0877L323.542 65.9977C323.857 65.9729 324.094 65.6956 324.069 65.381C324.044 65.066 323.767 64.8292 323.452 64.854L322.308 64.9437L322.22 63.8022L322.218 63.8001C322.193 63.4851 321.918 63.2505 321.601 63.2731C321.286 63.2976 321.049 63.5748 321.074 63.8898L321.164 65.0337L320.022 65.1209C319.705 65.1486 319.471 65.4229 319.495 65.7379Z" fill="#08F1D5"/>
<path d="M346.229 209.896L346.923 208.156L347.155 207.576L347.386 206.996C345.801 206.364 345.032 204.548 345.67 202.949C346.308 201.35 348.116 200.563 349.701 201.196L349.933 200.615L350.164 200.035L350.859 198.295L349.502 188.339L342.254 188.137L342.015 192.076L328.797 186.801L322.315 203.042L335.533 208.318L332.994 211.339L338.39 216.182L346.229 209.896ZM334.72 211.21L336.477 209.12L337.591 207.794L335.996 207.157L323.928 202.341L329.484 188.419L341.552 193.236L343.147 193.872L343.252 192.144L343.417 189.418L348.416 189.557L349.586 198.144L348.947 199.745C347.086 199.581 345.255 200.651 344.521 202.49C343.787 204.329 344.378 206.366 345.841 207.528L345.202 209.129L338.441 214.551L334.72 211.21Z" fill="url(#paint1_linear)" style="mix-blend-mode:multiply"/>
<path d="M336.598 198.26L338.785 197.896L335.466 193.497L334.584 195.707L333.349 198.8L331.762 202.778L339.303 201.688L336.598 198.26ZM335.797 196.005L336.552 197.004L335.717 197.143L335.469 196.829L335.797 196.005L335.797 196.005ZM334.935 198.165L336.986 200.764L333.709 201.238L334.935 198.165Z" fill="url(#paint2_linear)" style="mix-blend-mode:multiply"/>
<path d="M87 287.05L78.2733 278L84.8865 271.141C86.2049 269.775 86.2049 267.559 84.8865 266.192C84.2273 265.508 83.3638 265.166 82.5003 265.166C81.6368 265.166 80.7724 265.508 80.1132 266.192L73.5 273.05L64.7733 264L60 268.95L68.7267 278L61.1247 285.884V290.834H65.898L73.5 282.95L82.2267 292L87 287.05ZM77.4773 277.175L76.2875 275.941L81.3105 270.733L82.5003 271.966L77.4773 277.175ZM80.9092 267.016C81.3343 266.576 81.8988 266.333 82.5003 266.333C83.101 266.333 83.6662 266.576 84.0914 267.016C84.9681 267.926 84.9681 269.407 84.0914 270.316L83.2954 271.141L80.1132 267.841L80.9092 267.016ZM79.3181 268.666L80.5145 269.908L75.4924 275.116L74.2952 273.875L79.3181 268.666ZM64.7733 265.65L66.3405 267.275L65.5445 268.1C65.3254 268.328 65.3254 268.698 65.5445 268.925C65.7646 269.153 66.1205 269.153 66.3405 268.925C66.3405 268.925 66.3405 268.925 66.3414 268.924L67.1356 268.1L68.7267 269.75L67.9316 270.575C67.7116 270.803 67.7116 271.173 67.9316 271.4C68.1508 271.628 68.5076 271.628 68.7267 271.4C68.7267 271.4 68.7267 271.4 68.7267 271.4L69.5227 270.575L71.1138 272.225L70.3187 273.05C70.3187 273.05 70.3178 273.05 70.3178 273.05C70.0987 273.278 70.0987 273.647 70.3178 273.875C70.5379 274.103 70.8938 274.103 71.1138 273.875V273.875L71.909 273.05L73.5 274.7L72.7049 275.525C72.4849 275.753 72.4849 276.122 72.7049 276.35C72.924 276.578 73.28 276.578 73.5 276.35L74.2951 275.525L75.8862 277.175L75.0911 278C74.8711 278.228 74.8711 278.597 75.0911 278.825C75.3103 279.053 75.6671 279.053 75.8862 278.825C75.8871 278.825 75.8871 278.825 75.8871 278.825L76.6822 278L78.2733 279.65L77.4773 280.475V280.475C77.2582 280.703 77.2582 281.072 77.4773 281.3C77.6973 281.528 78.0533 281.528 78.2733 281.3L79.0684 280.475L80.6595 282.125L79.8644 282.95C79.6444 283.178 79.6444 283.547 79.8644 283.775C80.0836 284.002 80.4395 284.003 80.6595 283.775C80.6595 283.775 80.6595 283.775 80.6595 283.774L81.4547 282.95L83.0458 284.6L82.2515 285.424L82.2506 285.425C82.0306 285.652 82.0306 286.022 82.2506 286.25C82.4706 286.477 82.8266 286.477 83.0458 286.25L83.8417 285.425L85.409 287.05L82.2267 290.35L61.5911 268.95L64.7733 265.65ZM62.2494 289.667V288.7L63.1822 289.667H62.2494ZM65.4316 289.667H64.7725L62.2494 287.05V286.367L69.5227 278.825L70.7191 280.066L65.1062 285.887C64.8862 286.115 64.8862 286.485 65.1062 286.712C65.3253 286.94 65.6813 286.94 65.9013 286.712L71.515 280.891L72.7048 282.125L65.4316 289.667Z" fill="#08F1D5"/>
<path d="M272 33.0503L263.273 24L269.887 17.1414C271.205 15.7747 271.205 13.5585 269.887 12.1918C269.227 11.5082 268.364 11.1664 267.5 11.1664C266.637 11.1664 265.772 11.5082 265.113 12.1918L258.5 19.0503L249.773 10L245 14.9497L253.727 24L246.125 31.8835V36.8336H250.898L258.5 28.9497L267.227 38L272 33.0503ZM262.477 23.175L261.288 21.9411L266.31 16.7326L267.5 17.9664L262.477 23.175ZM265.909 13.0163C266.334 12.5758 266.899 12.3332 267.5 12.3332C268.101 12.3332 268.666 12.5759 269.091 13.0163C269.968 13.9264 269.968 15.4068 269.091 16.3164L268.295 17.1414L265.113 13.8414L265.909 13.0163ZM264.318 14.6664L265.515 15.9075L260.492 21.1161L259.295 19.8753L264.318 14.6664ZM249.773 11.65L251.341 13.2753L250.545 14.1003C250.325 14.328 250.325 14.6976 250.545 14.9253C250.765 15.153 251.121 15.153 251.341 14.9253C251.341 14.9253 251.341 14.9249 251.341 14.9244L252.136 14.1003L253.727 15.7503L252.932 16.5754C252.712 16.8031 252.712 17.1726 252.932 17.4004C253.151 17.6281 253.508 17.6281 253.727 17.4004C253.727 17.3999 253.727 17.3999 253.727 17.3999L254.523 16.5754L256.114 18.2254L255.319 19.0495C255.319 19.0495 255.318 19.05 255.318 19.0504C255.099 19.2781 255.099 19.6473 255.318 19.875C255.538 20.1031 255.894 20.1031 256.114 19.875V19.8754L256.909 19.0504L258.5 20.6999L257.705 21.525C257.485 21.7531 257.485 22.1223 257.705 22.35C257.924 22.5777 258.28 22.5777 258.5 22.35L259.295 21.525L260.886 23.175L260.091 24C259.871 24.2277 259.871 24.5973 260.091 24.825C260.31 25.0527 260.667 25.0527 260.886 24.825C260.887 24.8246 260.887 24.8246 260.887 24.8246L261.682 24L263.273 25.65L262.477 26.4746V26.475C262.258 26.7028 262.258 27.0719 262.477 27.3001C262.697 27.5278 263.053 27.5278 263.273 27.3001L264.068 26.475L265.66 28.1251L264.864 28.9497C264.644 29.1778 264.644 29.547 264.864 29.7747C265.084 30.0024 265.44 30.0028 265.66 29.7747C265.66 29.7747 265.66 29.7747 265.66 29.7742L266.455 28.9497L268.046 30.5997L267.251 31.4243L267.251 31.4247C267.031 31.6524 267.031 32.022 267.251 32.2497C267.471 32.4774 267.827 32.4774 268.046 32.2497L268.842 31.4247L270.409 33.0504L267.227 36.35L246.591 14.9497L249.773 11.65ZM247.249 35.6668V34.7004L248.182 35.6668H247.249ZM250.432 35.6668H249.772L247.249 33.0503V32.3672L254.523 24.825L255.719 26.0661L250.106 31.8874C249.886 32.1151 249.886 32.4847 250.106 32.7124C250.325 32.9401 250.681 32.9401 250.901 32.7124L256.515 26.8912L257.705 28.1247L250.432 35.6668Z" fill="url(#paint3_linear)" style="mix-blend-mode:multiply"/>
<path d="M246.828 212.588L241.811 217.447C241.58 217.671 241.574 218.04 241.797 218.27C242.021 218.501 242.39 218.508 242.621 218.284L247.638 213.425C247.869 213.201 247.875 212.832 247.651 212.601C247.428 212.371 247.059 212.364 246.828 212.588Z" fill="url(#paint4_linear)" style="mix-blend-mode:multiply"/>
<path d="M241 216.611L242.672 214.991C242.903 214.767 242.909 214.399 242.686 214.168C242.462 213.937 242.094 213.932 241.863 214.156L240.19 215.775C239.96 215.999 239.953 216.367 240.177 216.598C240.401 216.829 240.769 216.834 241 216.611Z" fill="url(#paint5_linear)" style="mix-blend-mode:multiply"/>
<path d="M253.075 204.47L251.064 203.933L252.238 208.97L253.831 207.427L256.06 205.268L258.928 202.491L252.059 200.499L253.075 204.47ZM252.904 206.704L252.638 205.558L253.405 205.763L253.498 206.128L252.904 206.704ZM254.461 205.196L253.692 202.185L256.677 203.05L254.461 205.196Z" fill="url(#paint6_linear)" style="mix-blend-mode:multiply"/>
<path d="M249.652 190.404L230.418 209.032C230.187 209.256 230.181 209.625 230.405 209.856L241.744 221.563C241.967 221.794 242.336 221.799 242.567 221.576L261.8 202.948C262.031 202.725 262.037 202.356 261.814 202.126L250.474 190.418C250.251 190.187 249.882 190.181 249.652 190.404ZM249.223 192.441L245.725 205.302C245.698 205.404 245.536 205.56 245.433 205.585L232.464 208.672L249.223 192.441ZM242.175 220.334L232.118 209.951L245.703 206.717C245.96 206.656 246.212 206.506 246.417 206.308C246.621 206.11 246.78 205.863 246.849 205.608L250.513 192.131L260.572 202.516L242.175 220.334Z" fill="url(#paint7_linear)" style="mix-blend-mode:multiply"/>
<path d="M166 31.7272C166 24.698 160.329 19 153.333 19C151.026 19 148.864 19.6199 147 20.703C145.136 19.6199 142.974 19 140.667 19C133.671 19 128 24.698 128 31.7272C128 36.4761 130.588 40.6167 134.425 42.8039C135.177 49.1107 140.52 54 147 54C153.48 54 158.823 49.1107 159.575 42.8039C163.412 40.6167 166 36.4761 166 31.7272ZM136.164 43.626C137.564 44.1608 139.081 44.4544 140.667 44.4544C142.974 44.4544 145.136 43.8346 147 42.7514C148.864 43.8345 151.026 44.4544 153.333 44.4544C154.919 44.4544 156.436 44.1608 157.836 43.626C157.691 44.3024 157.483 44.9642 157.213 45.6068C156.655 46.9329 155.855 48.1243 154.837 49.1474C153.819 50.1705 152.634 50.9739 151.314 51.535C149.948 52.1153 148.497 52.4095 147 52.4095C145.503 52.4095 144.052 52.1153 142.686 51.535C141.366 50.974 140.181 50.1705 139.163 49.1474C138.145 48.1243 137.345 46.9329 136.787 45.6068C136.517 44.9642 136.309 44.3024 136.164 43.626ZM158.071 41.7977C157.931 41.8642 157.79 41.9282 157.647 41.9894C156.282 42.5696 154.83 42.8639 153.333 42.8639C151.836 42.8639 150.385 42.5697 149.02 41.9894C148.838 41.9119 148.66 41.8297 148.482 41.7435C151.338 39.4899 153.207 36.0298 153.326 32.1269C153.863 32.5026 154.369 32.9268 154.837 33.3981C155.855 34.4212 156.655 35.6126 157.213 36.9381C157.791 38.3102 158.083 39.7685 158.083 41.2728C158.083 41.4487 158.079 41.6235 158.071 41.7977ZM151.737 31.2023C151.745 31.3765 151.75 31.5513 151.75 31.7272C151.75 33.2315 151.458 34.6898 150.88 36.0613C150.321 37.3873 149.522 38.5788 148.504 39.6019C148.037 40.0715 147.535 40.4938 147 40.8679C146.465 40.4938 145.963 40.0715 145.496 39.6019C144.478 38.5788 143.679 37.3874 143.12 36.0613C142.542 34.6898 142.25 33.2315 142.25 31.7272C142.25 31.5513 142.255 31.3765 142.263 31.2023C142.402 31.1358 142.543 31.0718 142.686 31.0106C144.052 30.4304 145.503 30.1361 147 30.1361C148.497 30.1361 149.948 30.4303 151.314 31.0106C151.457 31.0718 151.598 31.1358 151.737 31.2023ZM147 28.5456C145.415 28.5456 143.897 28.8392 142.498 29.374C142.643 28.6976 142.85 28.0358 143.12 27.3932C143.679 26.0671 144.478 24.8757 145.496 23.8526C145.963 23.383 146.465 22.9606 147 22.5865C147.535 22.9606 148.037 23.383 148.504 23.8526C149.522 24.8757 150.321 26.0671 150.88 27.3932C151.151 28.0358 151.358 28.6976 151.502 29.374C150.103 28.8392 148.585 28.5456 147 28.5456ZM140.674 32.1269C140.793 36.0298 142.662 39.4899 145.518 41.7435C145.341 41.8297 145.162 41.9119 144.98 41.9894C143.615 42.5696 142.164 42.8639 140.667 42.8639C139.17 42.8639 137.718 42.5697 136.353 41.9894C136.211 41.9282 136.069 41.8641 135.929 41.7977C135.921 41.6235 135.917 41.4487 135.917 41.2728C135.917 39.7685 136.209 38.3102 136.787 36.9387C137.345 35.6127 138.145 34.4212 139.163 33.3981C139.631 32.9268 140.137 32.5026 140.674 32.1269ZM145.518 21.7109C142.94 23.7443 141.168 26.7599 140.759 30.1961C137.03 32.3215 134.481 36.2926 134.34 40.8731C133.803 40.4974 133.299 40.0732 132.83 39.6019C131.811 38.5788 131.012 37.3874 130.454 36.0613C129.876 34.6898 129.583 33.2315 129.583 31.7272C129.583 30.2229 129.876 28.7646 130.454 27.3932C131.012 26.0671 131.811 24.8757 132.83 23.8526C133.848 22.8295 135.033 22.0261 136.353 21.465C137.718 20.8847 139.17 20.5905 140.667 20.5905C142.164 20.5905 143.615 20.8847 144.98 21.465C145.162 21.5426 145.341 21.6247 145.518 21.7109ZM163.546 27.3932C164.124 28.7647 164.417 30.2229 164.417 31.7272C164.417 33.2315 164.124 34.6898 163.546 36.0613C162.988 37.3873 162.189 38.5788 161.17 39.6019C160.702 40.0732 160.197 40.4974 159.66 40.8731C159.519 36.2926 156.97 32.3215 153.241 30.1961C152.832 26.7599 151.06 23.7442 148.482 21.7109C148.66 21.6247 148.838 21.5426 149.02 21.4651C150.385 20.8848 151.836 20.5905 153.333 20.5905C154.83 20.5905 156.282 20.8847 157.647 21.4651C158.967 22.0261 160.152 22.8296 161.17 23.8527C162.189 24.8757 162.988 26.0671 163.546 27.3932Z" fill="url(#paint8_linear)" style="mix-blend-mode:multiply"/>
<path d="M1.04892 44.9068L8.39422 49.9599L11.5423 52.1256L18.8884 57.1792L37.2632 32.7157L17.3255 18.9999L1.04892 44.9068ZM2.77696 44.5494L4.13379 42.3911L10.5599 46.8118L9.1162 48.9104L2.77696 44.5494ZM10.1661 49.6326L13.0535 45.4354L14.1026 46.1571L11.2152 50.3544L10.1661 49.6326ZM12.2643 51.0761L13.708 48.9775L20.1348 53.3987L18.6035 55.437L12.2643 51.0761ZM35.4473 33.0132L20.9006 52.3793L14.43 47.928L15.8737 45.8294C16.073 45.5396 16.0001 45.1435 15.7104 44.9442C15.4206 44.7449 15.0239 44.8179 14.8246 45.1077C15.0239 44.8179 14.9502 44.4213 14.6605 44.222C14.3707 44.0226 13.9748 44.0962 13.7755 44.3859C13.9748 44.0962 13.9011 43.6996 13.6114 43.5003C13.3216 43.3009 12.9249 43.3739 12.7256 43.6637L11.2819 45.7623L4.812 41.3114L17.6969 20.8022L35.4473 33.0132Z" fill="#08F1D5"/>
<path d="M16.2952 38.9042L21.8505 36.2275L21.6554 39.3521L28.7356 36.1245L25.9871 34.2338L22.1396 31.587L17.1923 28.1835L16.2952 38.9042ZM26.1595 35.8991L23.0586 37.3123L23.1654 35.5934L24.6653 34.8713L26.1595 35.8992L26.1595 35.8991ZM23.4564 34.0396L17.7502 36.789L18.2785 30.4775L23.4564 34.0396Z" fill="#08F1D5"/>
<g clip-path="url(#clip0)">
<path d="M389.285 144.636C389.285 142.387 387.462 140.563 385.212 140.563C384.911 140.563 384.618 140.596 384.335 140.658L381.636 137.958L388.961 130.633C390.23 129.364 390.23 127.307 388.961 126.038C388.327 125.403 387.496 125.086 386.664 125.086C385.833 125.086 385.001 125.403 384.366 126.038L377.04 133.364L368.697 125.02C368.274 124.597 367.719 124.385 367.166 124.385C366.611 124.385 366.056 124.597 365.633 125.02C364.788 125.866 364.788 127.237 365.633 128.083L373.977 136.427L366.085 144.319V148.914H370.681L378.572 141.022L381.248 143.698C381.177 143.999 381.138 144.313 381.138 144.636C381.138 149.249 387.941 149.614 390.19 149.614C392.44 149.614 389.285 146.886 389.285 144.636ZM386.664 126.169C387.243 126.169 387.786 126.395 388.195 126.804C389.04 127.648 389.04 129.022 388.195 129.867L387.43 130.633L384.366 127.569L385.132 126.804C385.541 126.395 386.085 126.169 386.664 126.169ZM366.399 127.317C365.977 126.895 365.977 126.208 366.399 125.786C366.604 125.581 366.876 125.469 367.166 125.469C367.454 125.469 367.727 125.581 367.931 125.786L376.275 134.129L374.743 135.661L366.399 127.317ZM367.169 147.831V146.934L368.065 147.831H367.169ZM370.232 147.831H369.598L367.169 145.402V144.768L383.601 128.335L384.753 129.487L369.918 144.322C369.706 144.533 369.706 144.877 369.918 145.088C370.129 145.3 370.473 145.3 370.684 145.088L385.518 130.253L386.664 131.399L370.232 147.831ZM379.338 140.256L380.869 138.725L383.225 141.08C382.584 141.439 382.05 141.965 381.683 142.601L379.338 140.256ZM385.167 147.829C384.225 147.511 383.499 147.098 383.009 146.6C382.479 146.063 382.222 145.421 382.222 144.636C382.222 143.838 382.533 143.087 383.097 142.522C383.662 141.958 384.413 141.646 385.212 141.646C386.861 141.646 388.202 142.988 388.202 144.636C388.202 145.869 388.859 147.072 389.387 148.038C389.466 148.182 389.561 148.356 389.648 148.524C388.482 148.494 386.716 148.351 385.167 147.829Z" fill="url(#paint9_linear)" style="mix-blend-mode:multiply"/>
</g>
<g clip-path="url(#clip1)">
<path d="M47.6859 96.4472L95.5797 110.017L98.4946 99.7331L50.5995 86.1621L47.6859 96.4472ZM94.3518 107.819L90.9742 106.861L91.4608 105.147C91.5939 104.673 91.3191 104.181 90.8462 104.046C90.3728 103.913 89.8806 104.188 89.7456 104.661C89.7463 104.662 89.7463 104.662 89.7463 104.662L89.2608 106.375L85.8323 105.404L86.3178 103.69C86.4521 103.216 86.1773 102.724 85.7032 102.59C85.2309 102.456 84.737 102.73 84.6038 103.204L84.1184 104.919L80.6899 103.947L81.1747 102.233L81.1753 102.232C81.3097 101.76 81.0342 101.267 80.5614 101.133C80.0873 100.999 79.5951 101.274 79.4614 101.747C79.4608 101.748 79.4608 101.748 79.4608 101.748L78.9754 103.461L75.547 102.489L76.033 100.776C76.1667 100.302 75.8919 99.8099 75.4184 99.6753C74.9456 99.5418 74.4528 99.817 74.3184 100.29L73.833 102.004L70.4046 101.033L70.8906 99.3193C71.0249 98.8452 70.7495 98.3534 70.276 98.2187C69.8025 98.0841 69.3103 98.3589 69.176 98.833L68.6906 100.548L65.2627 99.5761L65.7481 97.8612C65.8825 97.3886 65.607 96.8953 65.1342 96.7618C64.6601 96.6275 64.1679 96.9024 64.0342 97.3761C64.0336 97.3764 64.0336 97.3764 64.0336 97.3764L63.5482 99.0898L60.1197 98.1183L60.6057 96.4047C60.7395 95.9309 60.4646 95.4388 59.9911 95.3041C59.5183 95.1706 59.0255 95.4458 58.8911 95.9184C58.8911 95.9184 58.8911 95.9184 58.8918 95.9195L58.4058 97.6332L54.9773 96.6618L55.4621 94.9488C55.4627 94.9484 55.4633 94.9481 55.4633 94.9481C55.5971 94.4744 55.3222 93.9822 54.8487 93.8476C54.3752 93.7129 53.8825 93.9881 53.7487 94.4618L53.2627 96.1755L49.8857 95.2186L51.828 88.362L96.2946 100.962L94.3518 107.819Z" fill="url(#paint10_linear)" style="mix-blend-mode:multiply"/>
</g>
<path d="M324.244 130.783L310.196 113.378C310.028 113.17 309.722 113.137 309.513 113.305L297.405 123.077C297.196 123.246 297.164 123.552 297.332 123.76L302.4 130.04L299.764 131.419L299.642 131.268C299.474 131.059 299.168 131.027 298.959 131.195C298.75 131.364 298.717 131.67 298.886 131.879L303.772 137.933C303.94 138.142 304.246 138.175 304.455 138.006C304.664 137.837 304.697 137.531 304.529 137.322L304.406 137.171L306.311 134.885L311.379 141.166C311.548 141.374 311.854 141.407 312.063 141.238L324.17 131.467C324.379 131.298 324.412 130.992 324.244 130.783ZM300.388 132.191L303.02 130.814L305.686 134.115L303.784 136.399L300.388 132.191L300.388 132.191ZM323.181 131.015L313.344 138.954L299.908 122.307L309.745 114.368L323.181 131.015ZM305.112 131.852L298.395 123.529L299.151 122.918L305.869 131.242L312.587 139.565L311.83 140.176L305.112 131.852Z" fill="url(#paint11_linear)" style="mix-blend-mode:multiply"/>
<path d="M305.796 131.925C306.005 131.756 306.038 131.451 305.869 131.242C305.7 131.033 305.395 131 305.186 131.169C304.977 131.338 304.944 131.644 305.112 131.853C305.281 132.061 305.587 132.094 305.796 131.925Z" fill="url(#paint12_linear)" style="mix-blend-mode:multiply"/>
<path d="M309.149 116.724L318.309 128.074C318.309 128.074 318.309 128.074 318.31 128.075C318.478 128.283 318.784 128.316 318.993 128.148C319.202 127.979 319.235 127.672 319.067 127.464L309.906 116.113C309.737 115.904 309.43 115.871 309.221 116.04C309.012 116.208 308.98 116.515 309.149 116.724Z" fill="url(#paint13_linear)" style="mix-blend-mode:multiply"/>
<path d="M307.636 117.946L312.521 123.999C312.521 123.999 312.521 123.999 312.521 123.999C312.69 124.208 312.996 124.241 313.205 124.072C313.414 123.903 313.447 123.598 313.278 123.389L308.392 117.335C308.223 117.126 307.917 117.093 307.708 117.262C307.499 117.43 307.467 117.736 307.636 117.946Z" fill="url(#paint14_linear)" style="mix-blend-mode:multiply"/>
<path d="M306.12 119.168L312.838 127.491C312.838 127.491 312.838 127.491 312.838 127.491C313.007 127.7 313.313 127.733 313.522 127.564C313.73 127.395 313.764 127.089 313.595 126.88L306.877 118.557C306.708 118.347 306.402 118.314 306.193 118.483C305.984 118.652 305.951 118.958 306.12 119.168Z" fill="url(#paint15_linear)" style="mix-blend-mode:multiply"/>
<path d="M304.608 120.389L308.883 125.685C309.052 125.895 309.358 125.928 309.567 125.759C309.776 125.59 309.808 125.284 309.639 125.075L305.365 119.778C305.196 119.569 304.889 119.536 304.681 119.704C304.472 119.873 304.439 120.179 304.608 120.389Z" fill="url(#paint16_linear)" style="mix-blend-mode:multiply"/>
<path d="M303.095 121.61L311.034 131.447L311.033 131.447C311.203 131.657 311.509 131.689 311.718 131.521C311.927 131.352 311.959 131.046 311.79 130.836L303.851 121C303.682 120.79 303.376 120.757 303.167 120.926C302.958 121.095 302.926 121.401 303.095 121.61Z" fill="url(#paint17_linear)" style="mix-blend-mode:multiply"/>
<path d="M301.581 122.832L304.023 125.858C304.192 126.068 304.498 126.101 304.707 125.932C304.916 125.763 304.949 125.457 304.78 125.247L302.338 122.221C302.169 122.012 301.862 121.979 301.653 122.147C301.444 122.316 301.412 122.622 301.581 122.832Z" fill="url(#paint18_linear)" style="mix-blend-mode:multiply"/>
<path d="M54.7142 197.114L50.9141 193.114L46.5885 206.123L52.3254 204.843L60.3579 203.052L70.6833 200.749L57.921 186.733L54.7142 197.114ZM49.4489 203.54L51.7177 196.717L54.0716 199.194L52.9716 202.754L49.4489 203.54ZM55.1064 202.278L58.7542 190.469L67.0771 199.608L55.1064 202.278Z" fill="#08F1D5"/>
<path d="M64.2885 172.08L63.8662 170.186C63.7497 169.664 63.2411 169.333 62.7294 169.447C62.2163 169.561 61.8967 170.077 62.0132 170.6L62.4355 172.493L58.728 173.32L58.3058 171.427C58.1892 170.904 57.6807 170.573 57.169 170.687C56.6558 170.801 56.3362 171.317 56.4528 171.84L56.875 173.733L53.1683 174.56L52.7461 172.667C52.6295 172.144 52.1203 171.813 51.6085 171.927C51.0961 172.041 50.7758 172.557 50.8924 173.08L51.3146 174.973L47.6079 175.8L47.1856 173.907C47.0691 173.384 46.5599 173.053 46.0481 173.167C45.5356 173.282 45.2153 173.798 45.3319 174.32L45.7541 176.213L42.0474 177.04L41.6252 175.147C41.5086 174.624 40.9995 174.293 40.4876 174.407C39.9752 174.522 39.6549 175.038 39.7715 175.561L40.1937 177.454L34.6333 178.694L43.9217 220.339L79.1373 212.484L69.8489 170.839L64.2885 172.08ZM76.8707 211.043L45.3618 218.071L36.9004 180.134L40.6072 179.307L41.0117 181.121C41.1283 181.644 41.6375 181.975 42.1501 181.861C42.6619 181.747 42.9819 181.23 42.8654 180.708L42.4609 178.894L46.1676 178.067L46.5721 179.881C46.6887 180.403 47.198 180.735 47.7105 180.621C48.2223 180.507 48.5424 179.99 48.4258 179.467L48.0213 177.654L51.728 176.827L52.1325 178.641C52.2491 179.163 52.7584 179.495 53.2709 179.381C53.7828 179.266 54.1028 178.75 53.9863 178.227L53.5817 176.413L57.2885 175.587L57.693 177.4C57.8096 177.923 58.3182 178.255 58.8314 178.14C59.3432 178.026 59.6626 177.51 59.546 176.987L59.1415 175.173L62.8489 174.347L63.2534 176.16C63.37 176.683 63.8787 177.015 64.3918 176.9C64.9036 176.786 65.223 176.27 65.1064 175.747L64.7019 173.933L68.4093 173.106L76.8707 211.043Z" fill="#08F1D5"/>
<path d="M227.231 95.4344L204.495 115.44C204.222 115.68 204.195 116.096 204.435 116.369L218.351 132.186C218.592 132.459 219.008 132.485 219.281 132.245L227.484 125.027L229.502 128.513L229.304 128.687C229.031 128.927 229.005 129.344 229.245 129.617C229.485 129.89 229.901 129.916 230.174 129.676L238.083 122.717C238.356 122.477 238.382 122.062 238.142 121.789C237.902 121.516 237.486 121.488 237.213 121.729L237.015 121.903L233.813 119.459L242.018 112.24C242.29 111.999 242.317 111.584 242.077 111.311L228.16 95.4941C227.92 95.2211 227.504 95.1943 227.231 95.4344ZM230.51 127.626L228.495 124.145L232.808 120.348L236.007 122.789L230.51 127.626L230.51 127.626ZM231.956 101.801L228.99 104.41L224.641 99.4675L227.607 96.8582L231.956 101.801ZM229.86 105.399L232.825 102.789L238.914 109.709L235.948 112.318L229.86 105.399ZM223.653 100.337L234.96 113.188L217.166 128.844L205.859 115.993L223.653 100.337ZM229.779 121.254L218.906 130.821L218.036 129.833L228.909 120.266L239.784 110.698L240.653 111.686L229.779 121.254Z" fill="url(#paint19_linear)" style="mix-blend-mode:multiply"/>
<path d="M229.837 120.325C229.597 120.052 229.182 120.025 228.908 120.266C228.635 120.506 228.609 120.921 228.849 121.194C229.089 121.467 229.505 121.495 229.778 121.254C230.051 121.014 230.077 120.598 229.837 120.325Z" fill="url(#paint20_linear)" style="mix-blend-mode:multiply"/>
<path d="M223.14 116.555L226.529 113.573L218.877 110.952L219.81 115.493L217.567 114.777L218.62 120.532L220.504 118.875L223.14 116.555ZM220.631 112.944L223.955 114.084L221.337 116.387L220.631 112.944ZM219.497 118.006L219.257 116.699L220.113 116.972L220.198 117.389L219.497 118.006Z" fill="url(#paint21_linear)" style="mix-blend-mode:multiply"/>
<path d="M211.552 114.491L210.563 115.36L211.433 116.349L212.422 115.479L211.552 114.491Z" fill="url(#paint22_linear)" style="mix-blend-mode:multiply"/>
<path d="M216.987 109.708L215.999 110.577L216.869 111.566L217.857 110.696L216.987 109.708Z" fill="url(#paint23_linear)" style="mix-blend-mode:multiply"/>
<path d="M222.425 104.924L221.436 105.794L222.305 106.783L223.294 105.912L222.425 104.924Z" fill="url(#paint24_linear)" style="mix-blend-mode:multiply"/>
<path d="M225.904 108.878L224.915 109.748L225.785 110.736L226.774 109.866L225.904 108.878Z" fill="url(#paint25_linear)" style="mix-blend-mode:multiply"/>
<path d="M229.385 112.832L228.396 113.702L229.265 114.691L230.254 113.821L229.385 112.832Z" fill="url(#paint26_linear)" style="mix-blend-mode:multiply"/>
<path d="M218.511 122.399L217.522 123.269L218.392 124.257L219.381 123.388L218.511 122.399Z" fill="url(#paint27_linear)" style="mix-blend-mode:multiply"/>
<path d="M215.031 118.445L214.043 119.315L214.913 120.303L215.901 119.433L215.031 118.445Z" fill="url(#paint28_linear)" style="mix-blend-mode:multiply"/>
<path d="M223.947 117.616L222.959 118.486L223.829 119.474L224.817 118.605L223.947 117.616Z" fill="url(#paint29_linear)" style="mix-blend-mode:multiply"/>
<circle cx="427.5" cy="89.5" r="10.5" stroke="url(#paint30_linear)" stroke-width="10" style="mix-blend-mode:multiply"/>
<path d="M158 230.807V226.894H152.053V220H147.947V226.894H142V230.807H147.947V238H152.053V230.807H158Z" fill="#08F1D5"/>
<path d="M397.472 243C397.472 241.494 393.366 228.65 409.38 233.17C425.394 237.689 430.321 230.157 433.606 215.641C436.891 201.125 446.472 199.756 454 200.029" stroke="url(#paint31_linear)" stroke-width="8" stroke-linecap="round" stroke-linejoin="round" style="mix-blend-mode:multiply"/>
<path d="M422.198 19.7793C421.668 20.0493 417.888 23.7876 416.618 17.3744C415.348 10.9612 411.822 10.5869 406.136 12.039C400.449 13.4911 398.258 10.3841 397.01 7.70095" stroke="url(#paint32_linear)" stroke-width="8" stroke-linecap="round" stroke-linejoin="round" style="mix-blend-mode:multiply"/>
<defs>
<linearGradient id="paint0_linear" x1="181.545" y1="137.846" x2="142.251" y2="149.428" gradientUnits="userSpaceOnUse">
<stop stop-color="#00FFF0"/>
<stop offset="1" stop-color="#00A3FF"/>
</linearGradient>
<linearGradient id="paint1_linear" x1="342.576" y1="217.433" x2="343.845" y2="183.006" gradientUnits="userSpaceOnUse">
<stop stop-color="#00FFF0"/>
<stop offset="1" stop-color="#00A3FF"/>
</linearGradient>
<linearGradient id="paint2_linear" x1="337.791" y1="205.045" x2="337.345" y2="193.919" gradientUnits="userSpaceOnUse">
<stop stop-color="#00FFF0"/>
<stop offset="1" stop-color="#00A3FF"/>
</linearGradient>
<linearGradient id="paint3_linear" x1="271.649" y1="10.6771" x2="241.165" y2="19.341" gradientUnits="userSpaceOnUse">
<stop stop-color="#00FFF0"/>
<stop offset="1" stop-color="#00A3FF"/>
</linearGradient>
<linearGradient id="paint4_linear" x1="247.19" y1="212.277" x2="248.546" y2="216.398" gradientUnits="userSpaceOnUse">
<stop stop-color="#00FFF0"/>
<stop offset="1" stop-color="#00A3FF"/>
</linearGradient>
<linearGradient id="paint5_linear" x1="242.268" y1="213.802" x2="242.023" y2="216.984" gradientUnits="userSpaceOnUse">
<stop stop-color="#00FFF0"/>
<stop offset="1" stop-color="#00A3FF"/>
</linearGradient>
<linearGradient id="paint6_linear" x1="254.626" y1="198.223" x2="250.721" y2="207.855" gradientUnits="userSpaceOnUse">
<stop stop-color="#00FFF0"/>
<stop offset="1" stop-color="#00A3FF"/>
</linearGradient>
<linearGradient id="paint7_linear" x1="250.102" y1="190.556" x2="239.219" y2="219.407" gradientUnits="userSpaceOnUse">
<stop stop-color="#00FFF0"/>
<stop offset="1" stop-color="#00A3FF"/>
</linearGradient>
<linearGradient id="paint8_linear" x1="165.506" y1="19.8464" x2="123.445" y2="33.3062" gradientUnits="userSpaceOnUse">
<stop stop-color="#00FFF0"/>
<stop offset="1" stop-color="#00A3FF"/>
</linearGradient>
<linearGradient id="paint9_linear" x1="390.661" y1="124.996" x2="361.615" y2="133.819" gradientUnits="userSpaceOnUse">
<stop stop-color="#00FFF0"/>
<stop offset="1" stop-color="#00A3FF"/>
</linearGradient>
<linearGradient id="paint10_linear" x1="45.1741" y1="89.8285" x2="80.9325" y2="124.842" gradientUnits="userSpaceOnUse">
<stop stop-color="#00FFF0"/>
<stop offset="1" stop-color="#00A3FF"/>
</linearGradient>
<linearGradient id="paint11_linear" x1="323.974" y1="131.235" x2="301.207" y2="116.744" gradientUnits="userSpaceOnUse">
<stop stop-color="#00FFF0"/>
<stop offset="1" stop-color="#00A3FF"/>
</linearGradient>
<linearGradient id="paint12_linear" x1="306.148" y1="131.625" x2="305.213" y2="130.978" gradientUnits="userSpaceOnUse">
<stop stop-color="#00FFF0"/>
<stop offset="1" stop-color="#00A3FF"/>
</linearGradient>
<linearGradient id="paint13_linear" x1="319.226" y1="127.699" x2="315.715" y2="129.483" gradientUnits="userSpaceOnUse">
<stop stop-color="#00FFF0"/>
<stop offset="1" stop-color="#00A3FF"/>
</linearGradient>
<linearGradient id="paint14_linear" x1="313.493" y1="123.693" x2="309.917" y2="124.873" gradientUnits="userSpaceOnUse">
<stop stop-color="#00FFF0"/>
<stop offset="1" stop-color="#00A3FF"/>
</linearGradient>
<linearGradient id="paint15_linear" x1="313.787" y1="127.155" x2="310.223" y2="128.676" gradientUnits="userSpaceOnUse">
<stop stop-color="#00FFF0"/>
<stop offset="1" stop-color="#00A3FF"/>
</linearGradient>
<linearGradient id="paint16_linear" x1="309.864" y1="125.39" x2="306.299" y2="126.407" gradientUnits="userSpaceOnUse">
<stop stop-color="#00FFF0"/>
<stop offset="1" stop-color="#00A3FF"/>
</linearGradient>
<linearGradient id="paint17_linear" x1="311.967" y1="131.092" x2="308.429" y2="132.764" gradientUnits="userSpaceOnUse">
<stop stop-color="#00FFF0"/>
<stop offset="1" stop-color="#00A3FF"/>
</linearGradient>
<linearGradient id="paint18_linear" x1="305.028" y1="125.592" x2="301.708" y2="125.868" gradientUnits="userSpaceOnUse">
<stop stop-color="#00FFF0"/>
<stop offset="1" stop-color="#00A3FF"/>
</linearGradient>
<linearGradient id="paint19_linear" x1="227.858" y1="95.7734" x2="209.564" y2="127.407" gradientUnits="userSpaceOnUse">
<stop stop-color="#00FFF0"/>
<stop offset="1" stop-color="#00A3FF"/>
</linearGradient>
<linearGradient id="paint20_linear" x1="229.411" y1="119.866" x2="228.589" y2="121.169" gradientUnits="userSpaceOnUse">
<stop stop-color="#00FFF0"/>
<stop offset="1" stop-color="#00A3FF"/>
</linearGradient>
<linearGradient id="paint21_linear" x1="221.899" y1="108.519" x2="216.967" y2="119.19" gradientUnits="userSpaceOnUse">
<stop stop-color="#00FFF0"/>
<stop offset="1" stop-color="#00A3FF"/>
</linearGradient>
<linearGradient id="paint22_linear" x1="211.56" y1="114.526" x2="210.738" y2="115.829" gradientUnits="userSpaceOnUse">
<stop stop-color="#00FFF0"/>
<stop offset="1" stop-color="#00A3FF"/>
</linearGradient>
<linearGradient id="paint23_linear" x1="216.996" y1="109.743" x2="216.174" y2="111.046" gradientUnits="userSpaceOnUse">
<stop stop-color="#00FFF0"/>
<stop offset="1" stop-color="#00A3FF"/>
</linearGradient>
<linearGradient id="paint24_linear" x1="222.433" y1="104.959" x2="221.61" y2="106.263" gradientUnits="userSpaceOnUse">
<stop stop-color="#00FFF0"/>
<stop offset="1" stop-color="#00A3FF"/>
</linearGradient>
<linearGradient id="paint25_linear" x1="225.912" y1="108.913" x2="225.09" y2="110.217" gradientUnits="userSpaceOnUse">
<stop stop-color="#00FFF0"/>
<stop offset="1" stop-color="#00A3FF"/>
</linearGradient>
<linearGradient id="paint26_linear" x1="229.393" y1="112.867" x2="228.57" y2="114.171" gradientUnits="userSpaceOnUse">
<stop stop-color="#00FFF0"/>
<stop offset="1" stop-color="#00A3FF"/>
</linearGradient>
<linearGradient id="paint27_linear" x1="218.519" y1="122.434" x2="217.697" y2="123.738" gradientUnits="userSpaceOnUse">
<stop stop-color="#00FFF0"/>
<stop offset="1" stop-color="#00A3FF"/>
</linearGradient>
<linearGradient id="paint28_linear" x1="215.039" y1="118.48" x2="214.218" y2="119.784" gradientUnits="userSpaceOnUse">
<stop stop-color="#00FFF0"/>
<stop offset="1" stop-color="#00A3FF"/>
</linearGradient>
<linearGradient id="paint29_linear" x1="223.955" y1="117.651" x2="223.134" y2="118.954" gradientUnits="userSpaceOnUse">
<stop stop-color="#00FFF0"/>
<stop offset="1" stop-color="#00A3FF"/>
</linearGradient>
<linearGradient id="paint30_linear" x1="442.597" y1="74.7497" x2="407.794" y2="85.0077" gradientUnits="userSpaceOnUse">
<stop stop-color="#01E6E6"/>
<stop offset="1" stop-color="#10BBF1"/>
</linearGradient>
<linearGradient id="paint31_linear" x1="453.259" y1="201.04" x2="392.918" y2="224.616" gradientUnits="userSpaceOnUse">
<stop stop-color="#01E6E6"/>
<stop offset="1" stop-color="#10BBF1"/>
</linearGradient>
<linearGradient id="paint32_linear" x1="397.498" y1="7.77914" x2="416.502" y2="24.722" gradientUnits="userSpaceOnUse">
<stop stop-color="#01E6E6"/>
<stop offset="1" stop-color="#10BBF1"/>
</linearGradient>
<clipPath id="clip0">
<rect width="26" height="26" fill="white" transform="translate(365 124)"/>
</clipPath>
<clipPath id="clip1">
<rect width="42.7584" height="42.7584" fill="white" transform="translate(64.8477 127.179) rotate(-119.18)"/>
</clipPath>
</defs>
</svg>
